# xmcd
# 
# Track frame offsets:
#     150
#     12270
#     24752
#     36277
#     53392
#     66262
#     79630
#     92655
#     104602
#     116402
#     135000
#     148895
#     167092
#     179265
#     194362
#     207277
#     221700
#     238770
#     253005
#     277175
#     290815
#     302055
#     316765
# 
# Disc length: 4403
# 
# Revision: 6
# Processed by: cddbd v1.5.2PL0 Copyright (c) Steve Scherf et al.
# Submitted via: fre:ac v1.0.31
# 
DISCID=4a113117,4e113217
DTITLE=Johnny Cash - The Essential Johnny Cash 1955-1983 Disc 3
DYEAR=1992
DGENRE=Country
TTITLE0=Folsom Prison Blues (Live)
TTITLE1=Cocaine Blues (Live)
TTITLE2=San Quentin No. 2 (Live)
TTITLE3=A Boy Named Sue (Live)
TTITLE4=Wanted Man
TTITLE5=Singin' In Viet Nam Talkin' Blues
TTITLE6=Man In Black
TTITLE7=What Is Truth
TTITLE8=Flesh And Blood
TTITLE9=Sunday Morning Coming Down
TTITLE10=Oney
TTITLE11=One Piece At A Time
TTITLE12=Hit The Road And Go
TTITLE13=Rockability Blues (Texas 1955)
TTITLE14=I Will Rock And Roll With You
TTITLE15=No Expectations
TTITLE16=(Ghost) Riders In The Sky
TTITLE17=Bull Rider
TTITLE18=Highway Patrolman
TTITLE19=After The Ball
TTITLE20=Without Love
TTITLE21=The Last Time
TTITLE22=I'm Gonna Sit On The Porch And Pick On My Old Guitar
EXTD=Columbia/Legacy - C3K 47991\nDisk 2 of 3\n
EXTT0=
EXTT1=
EXTT2=
EXTT3=
EXTT4=
EXTT5=
EXTT6=
EXTT7=
EXTT8=
EXTT9=
EXTT10=
EXTT11=
EXTT12=
EXTT13=
EXTT14=
EXTT15=
EXTT16=
EXTT17=
EXTT18=
EXTT19=
EXTT20=
EXTT21=
EXTT22=
PLAYORDER=
